<svg xmlns="http://www.w3.org/2000/svg" width="27" height="21" viewBox="0 0 27 21"><path fill="#ef4f80" d="M0 0h27v2H0zm6.93 13H5.4V9.28c-.1.38-.2.77-.32 1.17-.12.41-.4 1.26-.83 2.55H3.08l-.51-1.59a55.7 55.7 0 0 1-.54-1.8l-.1-.33V13H.39V8.02h2.35l.39 1.17a24.71 24.71 0 0 1 .54 2.07c.02-.14.12-.53.31-1.17l.17-.59.48-1.48h2.3zm3.59.09c-.82 0-1.47-.22-1.93-.66-.45-.44-.68-1.07-.68-1.89 0-.84.21-1.48.63-1.93a2.4 2.4 0 0 1 1.82-.68c.75 0 1.33.2 1.74.59.41.39.61.95.61 1.69v.76H9.64c.01.28.12.5.31.66.19.16.45.24.78.24a3.58 3.58 0 0 0 1.66-.38v1.23a2.9 2.9 0 0 1-.84.29c-.28.05-.63.08-1.03.08zm-.1-3.99c-.2 0-.37.07-.5.19-.14.13-.22.33-.24.6h1.47a.8.8 0 0 0-.2-.57.67.67 0 0 0-.53-.22zm4.98-1.08v1.79h1.37V8.02h1.71V13h-1.71v-1.91H15.4V13h-1.72V8.02zm11.42 2.48a2.7 2.7 0 0 1-.64 1.91c-.43.45-1.02.68-1.79.68-.62 0-1.14-.18-1.56-.53a2.29 2.29 0 0 1-.77-1.47h-.67V13h-1.72V8.02h1.72v1.79h.67c.12-.6.38-1.06.78-1.39a2.5 2.5 0 0 1 1.58-.49c.48 0 .9.11 1.26.31.36.21.64.5.84.89.2.39.3.84.3 1.37zm-3.06 0c0 .45.05.78.15.99.11.22.27.32.5.32.24 0 .41-.11.51-.33.1-.23.15-.55.15-.98 0-.43-.05-.75-.15-.96a.52.52 0 0 0-.52-.33c-.23 0-.4.11-.5.32-.09.22-.14.54-.14.97zM0 19h27v2H0z"/></svg>