<?xml version="1.0" encoding="utf-8"?>
<!-- Generator: Adobe Illustrator 20.1.0, SVG Export Plug-In . SVG Version: 6.00 Build 0)  -->
<svg version="1.1" id="menu-icon-sketchs" xmlns="http://www.w3.org/2000/svg" xmlns:xlink="http://www.w3.org/1999/xlink" x="0px" y="0px"
	 viewBox="0 0 326 341" enable-background="new 0 0 326 341" xml:space="preserve">
<polygon fill="#CF507D" points="98,27 267.726,27 308,67.365 308,205 98,205 "/>
<g>
	<rect x="9" y="21" fill="#E2F25B" width="47" height="190"/>
	<polygon fill="#E2F25B" points="261,28 261,74 308,74 	"/>
	<rect x="198" y="299" fill="#E2F25B" width="128" height="42"/>
</g>
<g>
	<rect x="9" y="80" fill-rule="evenodd" clip-rule="evenodd" width="6" height="17"/>
	<rect x="9" y="52" fill-rule="evenodd" clip-rule="evenodd" width="6" height="15"/>
	<rect x="22" y="21" fill-rule="evenodd" clip-rule="evenodd" width="24" height="6"/>
	<rect x="9" y="106" fill-rule="evenodd" clip-rule="evenodd" width="6" height="11"/>
	<rect x="9" y="27" fill-rule="evenodd" clip-rule="evenodd" width="6" height="20"/>
	<polygon fill-rule="evenodd" clip-rule="evenodd" points="38,205 38,211 56,211 56,195 56,191 56,153 56,149 56,111 56,107 56,69
		56,65 56,21 50,21 50,37 34,37 34,41 50,41 50,51 34,51 34,55 50,55 50,65 26,65 26,69 50,69 50,79 34,79 34,83 50,83 50,93 34,93
		34,97 50,97 50,107 26,107 26,111 50,111 50,121 34,121 34,125 50,125 50,135 34,135 34,139 50,139 50,149 26,149 26,153 50,153
		50,163 34,163 34,167 50,167 50,177 34,177 34,181 50,181 50,191 26,191 26,195 50,195 50,205 	"/>
	<rect x="9" y="132" fill-rule="evenodd" clip-rule="evenodd" width="6" height="35"/>
	<rect x="15" y="205" fill-rule="evenodd" clip-rule="evenodd" width="13" height="6"/>
	<rect x="9" y="173" fill-rule="evenodd" clip-rule="evenodd" width="6" height="26"/>
	<rect x="302" y="299" fill-rule="evenodd" clip-rule="evenodd" width="18" height="6"/>
	<path fill-rule="evenodd" clip-rule="evenodd" d="M265.79,252h-7.58c-20,0-36.21,16.21-36.21,36.21V299h-7v6h14v-6h-1v-10.79
		c0-16.66,13.55-30.21,30.21-30.21h7.58c16.66,0,30.21,13.55,30.21,30.2V299h6v-10.8C302,268.21,285.79,252,265.79,252z"/>
	<path fill-rule="evenodd" clip-rule="evenodd" d="M274,299v6h15v-6h-5v-8.51c0-12.19-9.39-22.07-21.59-22.07h-0.82
		c-12.2,0-21.59,9.88-21.59,22.08v8.5h-4v6h23v-6h-13v-8.5c0-8.87,6.72-16.08,15.59-16.08h0.82c8.87,0,15.59,7.21,15.59,16.07V299
		H274z"/>
	<rect x="198" y="299" fill-rule="evenodd" clip-rule="evenodd" width="6" height="13"/>
	<rect x="320" y="312" fill-rule="evenodd" clip-rule="evenodd" width="6" height="7"/>
	<polygon fill-rule="evenodd" clip-rule="evenodd" points="320,335 314,335 314,330 310,330 310,335 304,335 304,330 300,330
		300,335 294,335 294,330 290,330 290,335 284,335 284,320 280,320 280,335 274,335 274,330 270,330 270,335 264,335 264,330
		260,330 260,335 254,335 254,330 250,330 250,335 244,335 244,320 240,320 240,335 234,335 234,330 230,330 230,335 224,335
		224,330 220,330 220,335 214,335 214,330 210,330 210,335 204,335 204,323 198,323 198,341 326,341 326,328 320,328 	"/>
	<rect y="226" fill-rule="evenodd" clip-rule="evenodd" width="12" height="6"/>
	<rect x="44" y="226" fill-rule="evenodd" clip-rule="evenodd" width="88" height="6"/>
	<path fill-rule="evenodd" clip-rule="evenodd" d="M152,226v-21h156V67.37L267.73,27H98v178h48v21h-7v6h7v52H57v6h89v31h6v-89h20h7
		v-6h-7H152z M105.15,199l1.06-0.99l-2.21-2.38V33h70v4h4v-4h83v14h6V34.76L300.15,68H287v6h15v55h-4v4h4v66H105.15z"/>
	<rect x="199" y="226" fill-rule="evenodd" clip-rule="evenodd" width="33" height="6"/>
	<rect x="242" y="226" fill-rule="evenodd" clip-rule="evenodd" width="30" height="6"/>
	<rect x="302" y="226" fill-rule="evenodd" clip-rule="evenodd" width="17" height="6"/>
	<rect fill-rule="evenodd" clip-rule="evenodd" width="12" height="6"/>
	<rect x="22" fill-rule="evenodd" clip-rule="evenodd" width="25" height="6"/>
	<rect x="66" fill-rule="evenodd" clip-rule="evenodd" width="28" height="6"/>
	<rect x="101" fill-rule="evenodd" clip-rule="evenodd" width="19" height="6"/>
	<rect x="143" fill-rule="evenodd" clip-rule="evenodd" width="31" height="6"/>
	<rect x="181" fill-rule="evenodd" clip-rule="evenodd" width="23" height="6"/>
	<rect x="212" fill-rule="evenodd" clip-rule="evenodd" width="22" height="6"/>
	<rect x="251" fill-rule="evenodd" clip-rule="evenodd" width="33" height="6"/>
	<rect x="301" fill-rule="evenodd" clip-rule="evenodd" width="18" height="6"/>
	<rect x="261" y="52" fill-rule="evenodd" clip-rule="evenodd" width="6" height="16"/>
	<rect x="272" y="68" fill-rule="evenodd" clip-rule="evenodd" width="10" height="6"/>
	<rect x="174" y="77" fill-rule="evenodd" clip-rule="evenodd" width="4" height="8"/>
	<polygon fill-rule="evenodd" clip-rule="evenodd" points="174,181 178,181 178,173 176,173 174,173 	"/>
	<rect x="174" y="189" fill-rule="evenodd" clip-rule="evenodd" width="4" height="8"/>
	<rect x="174" y="61" fill-rule="evenodd" clip-rule="evenodd" width="4" height="8"/>
	<rect x="174" y="45" fill-rule="evenodd" clip-rule="evenodd" width="4" height="8"/>
	<rect x="122" y="129" fill-rule="evenodd" clip-rule="evenodd" width="8" height="4"/>
	<rect x="106" y="129" fill-rule="evenodd" clip-rule="evenodd" width="8" height="4"/>
	<rect x="282" y="129" fill-rule="evenodd" clip-rule="evenodd" width="8" height="4"/>
	<rect x="266" y="129" fill-rule="evenodd" clip-rule="evenodd" width="8" height="4"/>
	<rect x="234" y="129" fill-rule="evenodd" clip-rule="evenodd" width="8" height="4"/>
	<rect x="250" y="129" fill-rule="evenodd" clip-rule="evenodd" width="8" height="4"/>

		<rect x="133.023" y="164.533" transform="matrix(0.7317 -0.6816 0.6816 0.7317 -76.7475 138.0733)" fill-rule="evenodd" clip-rule="evenodd" width="7.998" height="3.994"/>

		<rect x="109.626" y="186.36" transform="matrix(0.7329 -0.6804 0.6804 0.7329 -97.7985 127.618)" fill-rule="evenodd" clip-rule="evenodd" width="7.999" height="3.994"/>
	<polygon fill-rule="evenodd" clip-rule="evenodd" points="121.04,178.71 123.76,181.63 129.61,176.18 126.88,173.25 	"/>

		<rect x="179.821" y="120.872" transform="matrix(0.7316 -0.6817 0.6817 0.7316 -34.4311 158.2832)" fill-rule="evenodd" clip-rule="evenodd" width="7.999" height="4.001"/>

		<rect x="191.519" y="109.961" transform="matrix(0.7305 -0.6829 0.6829 0.7305 -23.7648 163.7027)" fill-rule="evenodd" clip-rule="evenodd" width="8.002" height="3.997"/>

		<rect x="203.219" y="99.043" transform="matrix(0.7316 -0.6817 0.6817 0.7316 -13.2717 168.3772)" fill-rule="evenodd" clip-rule="evenodd" width="8.002" height="4.005"/>
	<polygon fill-rule="evenodd" clip-rule="evenodd" points="231.64,75.54 226.33,80.48 229.06,83.41 234.36,78.46 	"/>

		<rect x="214.921" y="88.132" transform="matrix(0.7316 -0.6817 0.6817 0.7316 -2.692 173.427)" fill-rule="evenodd" clip-rule="evenodd" width="7.999" height="4.001"/>
	<path fill-rule="evenodd" clip-rule="evenodd" d="M178,89h-2c-23.16,0-42,18.84-42,42c0,23.16,18.84,42,42,42s42-18.84,42-42v2h8
		v-4h-48V89z M214,133c-1.04,20.03-17.72,36-38,36c-10.65,0-20.28-4.41-27.18-11.48c-0.78-0.8-1.52-1.63-2.23-2.48
		c-5.36-6.56-8.59-14.93-8.59-24.04c0-0.67,0.02-1.34,0.06-2h-0.01c1.01-19.36,16.59-34.94,35.95-35.95V133H214z"/>
	<rect y="284" fill-rule="evenodd" clip-rule="evenodd" width="30" height="6"/>
</g>
</svg>
