<?xml version="1.0" encoding="utf-8"?>
<!-- Generator: Adobe Illustrator 20.1.0, SVG Export Plug-In . SVG Version: 6.00 Build 0)  -->
<svg version="1.1" id="menu-icon-blog" xmlns="http://www.w3.org/2000/svg" xmlns:xlink="http://www.w3.org/1999/xlink" x="0px" y="0px"
	 viewBox="0 0 381 318" enable-background="new 0 0 381 318" xml:space="preserve">
<rect y="77" fill="#CF507D" width="116" height="160"/>
<g>
	<polygon fill-rule="evenodd" clip-rule="evenodd" fill="#DDF34B" points="251,17 251.109,65.357 251,114 272,88 381,88 381,17 	"/>
	<polygon fill-rule="evenodd" clip-rule="evenodd" fill="#DDF34B" points="251.109,245.357 251,294 272,268 381,268 381,197
		251,197 	"/>
</g>
<g>
	<rect x="181" fill-rule="evenodd" clip-rule="evenodd" width="6" height="10"/>
	<rect x="181" y="30" fill-rule="evenodd" clip-rule="evenodd" width="6" height="60"/>
	<rect x="181" y="110" fill-rule="evenodd" clip-rule="evenodd" width="6" height="50"/>
	<rect x="181" y="180" fill-rule="evenodd" clip-rule="evenodd" width="6" height="50"/>
	<rect x="181" y="250" fill-rule="evenodd" clip-rule="evenodd" width="6" height="40"/>
	<rect x="181" y="310" fill-rule="evenodd" clip-rule="evenodd" width="6" height="8"/>
	<rect x="55" fill-rule="evenodd" clip-rule="evenodd" width="6" height="40"/>
	<path fill-rule="evenodd" clip-rule="evenodd" d="M61,77V60h-6v17H0v160h55v23h6v-23h55V77H61z M110,231H6V83h104V231z"/>
	<rect x="55" y="280" fill-rule="evenodd" clip-rule="evenodd" width="6" height="38"/>
	<rect x="308" y="120" fill-rule="evenodd" clip-rule="evenodd" width="6" height="40"/>
	<polygon fill-rule="evenodd" clip-rule="evenodd" points="292,203 323,203 323,197 314,197 314,180 308,180 308,197 292,197 	"/>
	<rect x="308" y="310" fill-rule="evenodd" clip-rule="evenodd" width="6" height="8"/>
	<path fill-rule="evenodd" clip-rule="evenodd" d="M64,99v28h35V99H64z M95,123H68v-20h27V123z"/>
	<rect x="19" y="111" fill-rule="evenodd" clip-rule="evenodd" width="31" height="4"/>
	<path fill-rule="evenodd" clip-rule="evenodd" d="M64,143v28h35v-28H64z M95,167H68v-20h27V167z"/>
	<rect x="19" y="165" fill-rule="evenodd" clip-rule="evenodd" width="31" height="4"/>
	<rect x="19" y="145" fill-rule="evenodd" clip-rule="evenodd" width="31" height="4"/>
	<rect x="19" y="155" fill-rule="evenodd" clip-rule="evenodd" width="31" height="4"/>
	<path fill-rule="evenodd" clip-rule="evenodd" d="M64,187v28h35v-28H64z M95,211H68v-20h27V211z"/>
	<rect x="19" y="204" fill-rule="evenodd" clip-rule="evenodd" width="31" height="4"/>
	<rect x="19" y="194" fill-rule="evenodd" clip-rule="evenodd" width="31" height="4"/>
	<rect x="251" y="64" fill-rule="evenodd" clip-rule="evenodd" width="6" height="16"/>
	<polygon fill-rule="evenodd" clip-rule="evenodd" points="314,88 319,88 319,82 295,82 295,88 308,88 308,100 314,100 	"/>
	<polygon fill-rule="evenodd" clip-rule="evenodd" points="335,17 314,17 314,0 308,0 308,17 282,17 282,23 335,23 	"/>
	<rect x="258" y="17" fill-rule="evenodd" clip-rule="evenodd" width="13" height="6"/>
	<rect x="251" y="31" fill-rule="evenodd" clip-rule="evenodd" width="6" height="19"/>
	<polygon fill-rule="evenodd" clip-rule="evenodd" points="286,88 286,82 274.51,82 272.76,83.76 257,99.51 257,90 251,90 251,114
		277,88 	"/>
	<rect x="351" y="17" fill-rule="evenodd" clip-rule="evenodd" width="14" height="6"/>
	<rect x="375" y="54" fill-rule="evenodd" clip-rule="evenodd" width="6" height="18"/>
	<polygon fill-rule="evenodd" clip-rule="evenodd" points="375,76 381,76 381,88 369,88 369,82 375,82 	"/>
	<rect x="375" y="23" fill-rule="evenodd" clip-rule="evenodd" width="6" height="25"/>
	<rect x="324" y="82" fill-rule="evenodd" clip-rule="evenodd" width="32" height="6"/>
	<rect x="293" y="40" fill-rule="evenodd" clip-rule="evenodd" width="66" height="4"/>
	<rect x="293" y="61" fill-rule="evenodd" clip-rule="evenodd" width="66" height="4"/>
	<rect x="273" y="40" fill-rule="evenodd" clip-rule="evenodd" width="10" height="4"/>
	<rect x="273" y="61" fill-rule="evenodd" clip-rule="evenodd" width="10" height="4"/>
	<polygon fill-rule="evenodd" clip-rule="evenodd" points="295,268 308,268 308,290 314,290 314,268 319,268 319,262 295,262 	"/>
	<rect x="258" y="197" fill-rule="evenodd" clip-rule="evenodd" width="23" height="6"/>
	<polygon fill-rule="evenodd" clip-rule="evenodd" points="272.76,263.76 257,279.51 257,270 251,270 251,294 277,268 286,268
		286,262 274.51,262 	"/>
	<polygon fill-rule="evenodd" clip-rule="evenodd" points="339,203 375,203 375,206 381,206 381,197 339,197 	"/>
	<rect x="369" y="262" fill-rule="evenodd" clip-rule="evenodd" width="6" height="6"/>
	<rect x="375" y="222" fill-rule="evenodd" clip-rule="evenodd" width="6" height="30"/>
	<rect x="334" y="262" fill-rule="evenodd" clip-rule="evenodd" width="22" height="6"/>
	<rect x="251" y="216" fill-rule="evenodd" clip-rule="evenodd" width="6" height="24"/>
	<rect x="273" y="220" fill-rule="evenodd" clip-rule="evenodd" width="66" height="4"/>
	<rect x="273" y="241" fill-rule="evenodd" clip-rule="evenodd" width="66" height="4"/>
	<rect x="349" y="220" fill-rule="evenodd" clip-rule="evenodd" width="10" height="4"/>
	<rect x="349" y="241" fill-rule="evenodd" clip-rule="evenodd" width="10" height="4"/>
</g>
</svg>
