<?xml version="1.0" encoding="utf-8"?>
<!-- Generator: Adobe Illustrator 20.1.0, SVG Export Plug-In . SVG Version: 6.00 Build 0)  -->
<svg version="1.1" id="menu-icon-about-me" xmlns="http://www.w3.org/2000/svg" xmlns:xlink="http://www.w3.org/1999/xlink" x="0px" y="0px"
	 viewBox="0 0 334 228" enable-background="new 0 0 334 228" xml:space="preserve">
<rect y="42" fill="#CF507D" width="123" height="173"/>
<g>
	<path d="M0,42v173h123V42H0z M117,209H6V48h111V209z"/>
	<rect x="16" y="102" width="41" height="4"/>
	<rect x="61" y="102" width="23" height="4"/>
	<rect x="89" y="102" width="18" height="4"/>
	<rect x="16" y="119" width="10" height="4"/>
	<rect x="29" y="119" width="16" height="4"/>
	<rect x="49" y="119" width="10" height="4"/>
	<rect x="63" y="119" width="23" height="4"/>
	<rect x="90" y="119" width="17" height="4"/>
	<rect x="16" y="136" width="21" height="4"/>
	<rect x="43" y="136" width="20" height="4"/>
	<rect x="68" y="136" width="9" height="4"/>
	<rect x="82" y="136" width="25" height="4"/>
	<rect x="16" y="153" width="10" height="4"/>
	<rect x="31" y="153" width="23" height="4"/>
	<rect x="60" y="153" width="14" height="4"/>
	<rect x="80" y="153" width="17" height="4"/>
	<rect x="102" y="153" width="5" height="4"/>
	<rect x="16" y="170" width="20" height="4"/>
	<rect x="41" y="170" width="10" height="4"/>
	<rect x="16" y="58" width="32" height="4"/>
	<rect x="53" y="58" width="8" height="4"/>
	<rect x="16" y="68" width="20" height="4"/>
	<rect x="41" y="68" width="12" height="4"/>
	<rect x="57" y="68" width="4" height="4"/>
	<rect x="16" y="78" width="16" height="4"/>
	<rect x="36" y="78" width="25" height="4"/>
	<path d="M78,82.476h4C82,77.802,85.589,74,90,74s8,3.802,8,8.476h4c0-4.606-2.419-8.626-5.999-10.788C97.837,70.04,99,67.656,99,65
		c0-4.962-4.037-9-9-9s-9,4.038-9,9c0,2.656,1.163,5.04,2.999,6.688C80.419,73.85,78,77.87,78,82.476z M90,60c2.757,0,5,2.243,5,5
		s-2.243,5-5,5s-5-2.243-5-5S87.243,60,90,60z"/>
</g>
<polygon fill="#E2F25B" points="176,59 176,30 334,30 334,228 176,228 176,123 162,116 162,66 "/>
<path d="M182,30v6h146v186h-36v6h42V30H182z M242,228h33v-6h-33V228z M197,228h35v-6h-35V228z M176,222h6v-22h-6V222z M176,188h6
	v-21h-6V188z M176,150h6v-15h-6V150z M168,112.29V109h-6v7l14,7v5h6v-8.71l-3.32-1.66L168,112.29z M176,59l-14,7v6h6v-2.29
	l10.68-5.34l3.32-1.66V56h-6V59z M176,48h6v-7h-6V48z M168,84h-6v16h6V84z"/>
<g>
	<rect x="191" y="42" fill="#CF507D" width="123" height="173"/>
	<path d="M308,48v161H197V48H308 M314,42H191v173h123V42L314,42z"/>
</g>
<g>
	<polygon fill-rule="evenodd" clip-rule="evenodd" fill="#DDF34B" points="334,30 206,0 206,198 334,228 	"/>
	<g>
		<polygon points="212,199.392 206,198 228,203.156 228,196.994 212,193.244 		"/>
		<polygon points="241,14 239.844,14.095 260,18.819 260,12.656 241,8.203 		"/>
		<rect x="206" y="36" width="6" height="27"/>
		<rect x="206" y="77" width="6" height="26"/>
		<polygon points="224,4.22 224,10.38 212,7.57 212,22 206,22 206,0 		"/>
		<rect x="206" y="126" width="6" height="61"/>
		<polygon points="241,206 240.405,206.064 259,210.422 259,204.259 241,200.041 		"/>
		<rect x="328" y="57" width="6" height="26"/>
		<rect x="328" y="113" width="6" height="40"/>
		<rect x="328" y="167" width="6" height="26"/>
		<polygon points="328,209 334,209 334,228 308,221.91 308,215.74 328,220.43 		"/>
		<polygon points="319,26.484 319,32.647 328,34.756 328,43 334,43 334,30 		"/>
		<polygon points="285,24.678 303,28.897 303,22.734 285,18.516 		"/>
		<polygon points="275,214.172 292,218.156 292,212 292.027,212 275,208.009 		"/>
	</g>
</g>
</svg>
